<svg width="480" height="40" viewBox="0 0 480 40" fill="none" xmlns="http://www.w3.org/2000/svg">
<line x1="2" y1="4" x2="2" y2="36" stroke="#8D8478" stroke-width="4"/>
<line x1="4" y1="38" x2="24" y2="38" stroke="#8D8478" stroke-width="4"/>
<line x1="4" y1="18" x2="24" y2="18" stroke="#8D8478" stroke-width="4"/>
<line x1="4" y1="2" x2="24" y2="2" stroke="#8D8478" stroke-width="4"/>
<line x1="26" y1="36" x2="26" y2="4" stroke="#8D8478" stroke-width="4"/>
<line x1="14" y1="16" x2="14" y2="4" stroke="#8D8478" stroke-width="4"/>
<rect x="4" y="4" width="8" height="12" fill="#49453F"/>
<path d="M67.96 30V22H56V30H67.96ZM67.96 17.92V10H56V17.92H67.96ZM52 34V6H68V10H72V18H68V22H72V30H68V34H52ZM84 30V18H88V14H100V18H104V30H100V34H88V30H84ZM100 30V18H88V30H100ZM120 34H116V14H132V18H136V34H132V18H120V34ZM168 34H152V30H148V18H152V14H164V18H168V26H152V30H168V34ZM164 22V18H152V22H164ZM180 34V30H196V26H184V22H180V18H184V14H200V18H184V22H196V26H200V30H196V34H180Z" fill="#F9F2C0"/>
<line x1="274" y1="4" x2="274" y2="36" stroke="#8D8478" stroke-width="4"/>
<line x1="276" y1="38" x2="296" y2="38" stroke="#8D8478" stroke-width="4"/>
<line x1="276" y1="18" x2="296" y2="18" stroke="#8D8478" stroke-width="4"/>
<line x1="276" y1="2" x2="296" y2="2" stroke="#8D8478" stroke-width="4"/>
<line x1="298" y1="36" x2="298" y2="4" stroke="#8D8478" stroke-width="4"/>
<line x1="286" y1="16" x2="286" y2="4" stroke="#8D8478" stroke-width="4"/>
<rect x="288" y="4" width="8" height="12" fill="#49453F"/>
<path d="M339.96 30V22H328V30H339.96ZM339.96 17.92V10H328V17.92H339.96ZM324 34V6H340V10H344V18H340V22H344V30H340V34H324ZM372 30V34H360V30H364V10H360V6H368V30H372ZM388 30V18H392V14H404V18H408V30H404V34H392V30H388ZM404 30V18H392V30H404ZM420 30V18H424V14H436V18H440V30H436V34H424V30H420ZM436 30V18H424V30H436ZM472 6V34H456V30H452V18H456V14H468V6H472ZM468 30V18H456V30H468Z" fill="#F9F2C0"/>
</svg>
